<svg width="21" height="21" viewBox="0 0 21 21" fill="none" xmlns="http://www.w3.org/2000/svg">
<g clip-path="url(#clip0)">
<path d="M14.2742 6.36352C14.0474 6.36352 13.8633 6.54681 13.8633 6.77351C13.8633 7.00006 14.0474 7.18367 14.2742 7.18367C14.5016 7.18367 14.6852 7.00006 14.6852 6.77351C14.6852 6.54681 14.5016 6.36352 14.2742 6.36352Z" fill="#3A3A3A"/>
<path d="M6.80732 13.8157C6.58001 13.8157 6.39636 13.9995 6.39636 14.2259C6.39636 14.4527 6.58001 14.636 6.80732 14.636C7.03415 14.636 7.21828 14.4527 7.21828 14.2259C7.21828 13.9995 7.03415 13.8157 6.80732 13.8157Z" fill="#3A3A3A"/>
<path d="M20.5509 2.52326C20.4122 2.49106 20.2664 2.53288 20.1662 2.63381L18.4625 4.34766H17.6457L16.7466 3.41792V2.59136L18.4259 0.890329C18.5253 0.789712 18.5657 0.645036 18.5328 0.507409C18.5001 0.369943 18.3986 0.259072 18.2644 0.213891C17.8426 0.0719384 17.4011 7.65282e-07 16.9521 7.65282e-07C15.6136 7.65282e-07 14.3976 0.622926 13.6158 1.70904C12.8841 2.72578 12.6585 3.97179 12.9817 5.16429L9.95455 8.18551L4.91131 3.14058V2.15044C4.91131 2.0064 4.83554 1.87278 4.71177 1.79876L1.806 0.0584801C1.64418 -0.0384514 1.43726 -0.0129768 1.30402 0.120164L0.141776 1.27998C0.0085357 1.41312 -0.0169887 1.61964 0.079972 1.78114L1.82334 4.68123C1.8975 4.80476 2.03122 4.88022 2.17554 4.88038L3.1673 4.8807L8.21102 9.92563L5.19545 12.9353C4.00062 12.613 2.75153 12.8384 1.73232 13.5691C0.644719 14.3489 0.0210571 15.5622 0.0210571 16.8981C0.0210571 17.3461 0.0931355 17.7869 0.235366 18.2077C0.280796 18.3425 0.393007 18.4442 0.531706 18.4763C0.670565 18.5085 0.816166 18.4667 0.916498 18.3657L2.62005 16.652H3.44133L4.37706 17.5859V18.4056L2.66002 20.1058C2.55889 20.206 2.51699 20.3513 2.54926 20.4899C2.58136 20.6283 2.6833 20.7403 2.81831 20.7856C3.24002 20.9276 3.68164 20.9995 4.13049 20.9995C5.46899 20.9995 6.68453 20.3769 7.466 19.2915C8.19818 18.2742 8.42404 17.0277 8.10106 15.8352L10.523 13.418L11.0778 14.0195L10.8232 14.2734C10.6626 14.4337 10.6626 14.6934 10.8232 14.8536C10.9837 15.0137 11.2438 15.0137 11.4045 14.8536L11.635 14.6235L16.8404 20.2667C16.8442 20.2709 16.8482 20.2749 16.8522 20.2789C17.8154 21.2402 19.3759 21.2405 20.3396 20.2787C21.3005 19.3192 21.3005 17.7579 20.3396 16.7983C20.3354 16.7942 20.3311 16.7901 20.3268 16.7861L14.6637 11.6009L14.8917 11.3734C15.0522 11.2133 15.0522 10.9536 14.8917 10.7934C14.7311 10.6332 14.4711 10.6332 14.3104 10.7934L14.0576 11.0459L13.4538 10.4928L15.8874 8.0639C16.2334 8.15619 16.5904 8.20297 16.9521 8.20297C19.2181 8.20297 21.0615 6.36304 21.0615 4.10157C21.0615 3.65344 20.9894 3.21284 20.8472 2.79179C20.8018 2.65705 20.6896 2.55531 20.5509 2.52326ZM3.62867 4.18087C3.55161 4.10381 3.44711 4.06456 3.33795 4.06456L2.40847 4.06424L0.949889 1.63374L1.65831 0.926698L4.08939 2.38275V3.31041C4.08939 3.41904 4.13257 3.52318 4.20947 3.60009L9.37342 8.76566L8.79214 9.34564L3.62867 4.18087ZM14.082 12.1815L19.7643 17.3842C20.399 18.0245 20.3971 19.0611 19.7583 19.6989C19.1181 20.3378 18.0817 20.3398 17.439 19.7045L12.2166 14.0429L14.082 12.1815ZM13.4758 11.6263L11.6594 13.4389L11.1046 12.8374L12.872 11.0733L13.4758 11.6263ZM16.9521 7.38266C16.5927 7.38266 16.2392 7.32514 15.9017 7.21171C15.7539 7.1622 15.5905 7.20033 15.48 7.3104C13.4198 9.36663 8.98044 13.7971 7.34576 15.4288C7.23531 15.539 7.19695 15.7021 7.24687 15.8498C7.58848 16.8622 7.42506 17.9421 6.79835 18.8129C6.1734 19.6811 5.20091 20.1792 4.13049 20.1792C4.01025 20.1792 3.89065 20.1727 3.77218 20.16L5.07746 18.8674C5.15515 18.7905 5.19898 18.6857 5.19898 18.5762V17.416C5.19898 17.3072 5.15564 17.2029 5.07858 17.126L3.90205 15.9517C3.825 15.8748 3.72049 15.8316 3.61149 15.8316H2.44893C2.33928 15.8316 2.2343 15.8753 2.15708 15.9528L0.862078 17.2556C0.849236 17.1373 0.842815 17.018 0.842815 16.898C0.842815 15.8295 1.34174 14.859 2.21182 14.2353C3.08415 13.6098 4.16628 13.4466 5.18084 13.7877C5.32869 13.8375 5.49211 13.7992 5.60255 13.689C5.62519 13.6665 13.731 5.57637 13.7368 5.5706C13.8473 5.46037 13.8855 5.29743 13.8357 5.14971C13.4939 4.13729 13.657 3.05775 14.2833 2.18761C14.9087 1.31859 15.8813 0.820314 16.9519 0.820314C17.0759 0.820314 17.199 0.827203 17.321 0.840662L16.0428 2.13538C15.9671 2.21212 15.9247 2.31546 15.9247 2.42313V3.58342C15.9247 3.68981 15.9659 3.79187 16.0399 3.86829L17.1754 5.04252C17.2528 5.12263 17.3595 5.16781 17.4711 5.16781H18.6336C18.7431 5.16781 18.8481 5.12423 18.9253 5.04653L20.2203 3.74396C20.2332 3.8622 20.2396 3.98156 20.2396 4.10157C20.2396 5.91074 18.7648 7.38266 16.9521 7.38266Z" fill="#3A3A3A"/>
<path d="M12.8214 7.64349L7.67881 12.7761C7.51844 12.9361 7.51844 13.1958 7.67881 13.356C7.83934 13.5163 8.09956 13.5163 8.26009 13.356L13.4027 8.22348C13.5632 8.06342 13.5632 7.80371 13.4027 7.64349C13.2422 7.48328 12.9819 7.48328 12.8214 7.64349Z" fill="#3A3A3A"/>
<path d="M18.0146 18.5391C18.1752 18.6988 18.4354 18.6988 18.5959 18.5381C18.7561 18.3777 18.7556 18.118 18.5949 17.9581L14.8907 14.273C14.73 14.1131 14.4696 14.1135 14.3096 14.2739C14.1492 14.4345 14.1497 14.694 14.3104 14.8539L18.0146 18.5391Z" fill="#3A3A3A"/>
</g>
<defs>
<clipPath id="clip0">
<rect width="21" height="21" fill="white"/>
</clipPath>
</defs>
</svg>
