<svg width="18" height="18" viewBox="0 0 18 18" fill="none" xmlns="http://www.w3.org/2000/svg">
<path fill-rule="evenodd" clip-rule="evenodd" d="M10.35 1.31554V1.31538C10.35 0.587538 9.74699 0 8.99999 0C8.25299 0 7.64999 0.587538 7.64999 1.31538V1.91169C5.07599 2.508 3.59999 4.75292 3.59999 7.45385V11.8385L1.79999 13.5923V14.4692H16.2V13.5923L14.4 11.8385V7.81411C13.7475 7.7122 13.1364 7.48569 12.5916 7.15967C12.5972 7.25681 12.6 7.35491 12.6 7.45385V12.7154H5.39999V7.45385C5.39999 5.27908 6.75899 3.50769 8.99999 3.50769C9.43515 3.50769 9.83705 3.57449 10.2022 3.69806C10.1515 3.41051 10.125 3.1146 10.125 2.8125C10.125 2.29137 10.2038 1.78864 10.35 1.31554ZM10.8 15.3462C10.8 16.3108 9.98999 17.1 8.99999 17.1C8.00999 17.1 7.19999 16.3108 7.19999 15.3462H10.8Z" fill="#878787"/>
<circle cx="15.1875" cy="2.8125" r="2.8125" fill="#FF9519"/>
</svg>
