<svg width="26" height="26" viewBox="0 0 26 26" fill="none" xmlns="http://www.w3.org/2000/svg">
<g clip-path="url(#clip0)">
<path d="M25.5806 25.1613H24.3226V20.9397C24.3226 17.2413 21.562 14.0531 17.5769 13.084C17.8762 12.4416 18.0316 11.7417 18.0323 11.0332V8.67274C18.554 8.15059 18.8544 7.44764 18.871 6.70968V4.6129C18.8679 2.06647 16.8045 0.00307145 14.2581 0H11.7419C9.1955 0.00307145 7.1321 2.06647 7.12903 4.6129V6.70968C7.14562 7.44764 7.44601 8.15059 7.96774 8.67274V11.0332C7.96836 11.7417 8.12377 12.4416 8.42313 13.084C4.43804 14.0531 1.67742 17.2413 1.67742 20.9397V25.1613H0.419355C0.187768 25.1613 0 25.3491 0 25.5806C0 25.8122 0.187768 26 0.419355 26H25.5806C25.8122 26 26 25.8122 26 25.5806C26 25.3491 25.8122 25.1613 25.5806 25.1613ZM23.4839 20.9397V25.1613H20.9677V20.9677C20.9677 20.7362 20.78 20.5484 20.5484 20.5484C20.3168 20.5484 20.129 20.7362 20.129 20.9677V25.1613H15.0695L14.6774 19.2627C14.675 19.2271 14.668 19.1918 14.6569 19.1578L14.3041 18.1006L14.5081 17.9506C14.5918 17.8885 14.6496 17.7974 14.6698 17.695L15.0892 15.5982C15.0914 15.5739 15.0914 15.5491 15.0892 15.5245C15.9156 15.1615 16.6266 14.5783 17.144 13.8387C20.8785 14.6467 23.4839 17.5609 23.4839 20.9397ZM8.80645 11.0332V9.37385C10.0707 10.1343 11.5251 10.5193 13 10.4839C14.4749 10.5193 15.9293 10.1343 17.1935 9.37385V11.0332C17.1913 13.2764 15.3732 15.0945 13.13 15.0968H12.87C10.6268 15.0945 8.8087 13.2764 8.80645 11.0332ZM13 9.64516C10.5162 9.64516 8.38955 8.52961 8.02774 7.12903H17.9723C17.6104 8.52961 15.4838 9.64516 13 9.64516ZM12.87 15.9355H13.13C13.4865 15.9347 13.8418 15.8949 14.1897 15.8167L13.8807 17.3717L13.1624 17.9014C13.0598 17.9438 12.9445 17.9438 12.8419 17.9014L12.1236 17.3717L11.8124 15.8167C12.1594 15.8947 12.5141 15.9347 12.87 15.9355ZM12.4086 18.6193C12.4187 18.6257 12.4285 18.6324 12.4389 18.6377C12.7934 18.814 13.2099 18.814 13.5645 18.6377C13.575 18.6324 13.5846 18.6257 13.5946 18.6193L13.8463 19.3704L14.2292 25.1613H11.7708L12.1566 19.3716L12.4086 18.6193ZM7.96774 4.6129C7.9702 2.52944 9.65847 0.841167 11.7419 0.83871H14.2581C16.3415 0.841167 18.0298 2.52944 18.0323 4.6129V6.29032H7.96774V4.6129ZM2.51613 20.9397C2.51613 17.5609 5.12153 14.6467 8.856 13.8387C9.37344 14.5783 10.0844 15.1615 10.9108 15.5245C10.9085 15.5491 10.9085 15.5739 10.9108 15.5982L11.3302 17.695C11.3504 17.7974 11.4082 17.8885 11.4919 17.9506L11.6959 18.1006L11.3431 19.1578C11.332 19.1918 11.325 19.2271 11.3226 19.2627L10.9305 25.1613H5.87097V20.9677C5.87097 20.7362 5.6832 20.5484 5.45161 20.5484C5.22003 20.5484 5.03226 20.7362 5.03226 20.9677V25.1613H2.51613V20.9397Z" fill="#3A3A3A"/>
<path d="M12.9999 2.51613C12.0736 2.51613 11.3225 3.2672 11.3225 4.19355C11.3225 5.1199 12.0736 5.87097 12.9999 5.87097C13.9263 5.87097 14.6773 5.1199 14.6773 4.19355C14.6773 3.2672 13.9263 2.51613 12.9999 2.51613ZM12.9999 5.03226C12.5368 5.03226 12.1612 4.65672 12.1612 4.19355C12.1612 3.73037 12.5368 3.35484 12.9999 3.35484C13.4631 3.35484 13.8386 3.73037 13.8386 4.19355C13.8386 4.65672 13.4631 5.03226 12.9999 5.03226Z" fill="#3A3A3A"/>
<path d="M15.5161 20.9677V24.3226C15.5161 24.5542 15.7039 24.7419 15.9355 24.7419H19.2903C19.5219 24.7419 19.7097 24.5542 19.7097 24.3226V20.9677C19.7097 20.7362 19.5219 20.5484 19.2903 20.5484H15.9355C15.7039 20.5484 15.5161 20.7362 15.5161 20.9677ZM16.3548 23.9032V22.6452H18.871V23.9032H16.3548ZM18.4516 21.3871H18.871V21.8064H16.3548V21.3871H18.4516Z" fill="#3A3A3A"/>
</g>
<defs>
<clipPath id="clip0">
<rect width="26" height="26" fill="white"/>
</clipPath>
</defs>
</svg>
