<svg width="30" height="30" viewBox="0 0 30 30" fill="none" xmlns="http://www.w3.org/2000/svg">
<circle cx="15" cy="15" r="15" fill="#FFE1E1"/>
<path d="M15 7C10.5889 7 7 10.5889 7 15C7 19.4111 10.5889 23 15 23C19.4111 23 23 19.4111 23 15C23 10.5889 19.4111 7 15 7ZM15 22.3333C10.9564 22.3333 7.66666 19.0436 7.66666 15C7.66666 10.9564 10.9564 7.66666 15 7.66666C19.0436 7.66666 22.3333 10.9564 22.3333 15C22.3333 19.0436 19.0436 22.3333 15 22.3333Z" fill="#FF5353"/>
<path d="M18.2358 11.7643C18.1055 11.6341 17.8946 11.6341 17.7644 11.7643L15.0001 14.5286L12.2358 11.7643C12.1055 11.6341 11.8946 11.6341 11.7644 11.7643C11.6342 11.8945 11.6342 12.1055 11.7644 12.2357L14.5287 15L11.7644 17.7643C11.6342 17.8945 11.6342 18.1054 11.7644 18.2356C11.8295 18.3007 11.9148 18.3333 12.0001 18.3333C12.0854 18.3333 12.1707 18.3007 12.2358 18.2356L15.0001 15.4713L17.7644 18.2356C17.8295 18.3007 17.9148 18.3333 18.0001 18.3333C18.0854 18.3333 18.1706 18.3007 18.2358 18.2356C18.366 18.1054 18.366 17.8945 18.2358 17.7643L15.4714 15L18.2357 12.2357C18.3659 12.1054 18.3659 11.8945 18.2358 11.7643Z" fill="#FF5353"/>
</svg>
