<svg width="30" height="30" viewBox="0 0 30 30" fill="none" xmlns="http://www.w3.org/2000/svg">
<circle cx="15" cy="15" r="15" fill="#E5E8ED"/>
<path d="M19.0938 18.5313C19.0938 18.8094 19.1762 19.0813 19.3307 19.3125C19.4853 19.5438 19.7049 19.724 19.9619 19.8305C20.2188 19.9369 20.5016 19.9648 20.7744 19.9105C21.0471 19.8562 21.2977 19.7223 21.4944 19.5256C21.691 19.329 21.825 19.0784 21.8792 18.8056C21.9335 18.5328 21.9057 18.2501 21.7992 17.9931C21.6928 17.7361 21.5125 17.5165 21.2813 17.362C21.05 17.2075 20.7781 17.125 20.5 17.125C20.1272 17.1254 19.7698 17.2737 19.5061 17.5374C19.2425 17.801 19.0942 18.1584 19.0938 18.5313ZM21.3438 18.5313C21.3438 18.6981 21.2943 18.8613 21.2016 19C21.1088 19.1388 20.9771 19.2469 20.8229 19.3108C20.6687 19.3746 20.4991 19.3914 20.3354 19.3588C20.1717 19.3262 20.0214 19.2459 19.9034 19.1279C19.7854 19.0099 19.705 18.8595 19.6725 18.6959C19.6399 18.5322 19.6566 18.3625 19.7205 18.2084C19.7843 18.0542 19.8925 17.9224 20.0312 17.8297C20.17 17.737 20.3331 17.6875 20.5 17.6875C20.7238 17.6875 20.9384 17.7764 21.0966 17.9346C21.2549 18.0929 21.3438 18.3075 21.3438 18.5313Z" fill="#8C94A4"/>
<path d="M21.4788 22.5559C22.3337 21.4534 23.5938 19.6394 23.5938 18.5312C23.5922 17.8089 23.3384 17.1099 22.8762 16.5548C22.4141 15.9997 21.7726 15.6234 21.0625 15.4909V9.25H21.625C21.6996 9.25 21.7711 9.22037 21.8239 9.16762C21.8766 9.11488 21.9062 9.04334 21.9062 8.96875V7.84375C21.9062 7.76916 21.8766 7.69762 21.8239 7.64488C21.7711 7.59213 21.6996 7.5625 21.625 7.5625H8.6875C8.61291 7.5625 8.54137 7.59213 8.48863 7.64488C8.43588 7.69762 8.40625 7.76916 8.40625 7.84375V8.96875C8.40625 9.04334 8.43588 9.11488 8.48863 9.16762C8.54137 9.22037 8.61291 9.25 8.6875 9.25H9.25V20.5H8.6875C8.61291 20.5 8.54137 20.5296 8.48863 20.5824C8.43588 20.6351 8.40625 20.7067 8.40625 20.7812V21.625C8.40625 21.6996 8.43588 21.7711 8.48863 21.8239C8.54137 21.8766 8.61291 21.9062 8.6875 21.9062H19.0347C19.2034 22.1397 19.3694 22.3591 19.5212 22.5559C18.8434 22.6853 18.25 22.9666 18.25 23.4531C18.25 24.1281 19.4172 24.4375 20.5 24.4375C21.5828 24.4375 22.75 24.1281 22.75 23.4531C22.75 22.9666 22.1566 22.6853 21.4788 22.5559ZM8.96875 8.6875V8.125H21.3438V8.6875H8.96875ZM19.6562 13.1875H17.9688C17.8942 13.1875 17.8226 13.2171 17.7699 13.2699C17.7171 13.3226 17.6875 13.3942 17.6875 13.4688V15.4375H17.4062V16H18.7281C18.3202 16.2843 17.9871 16.6629 17.7569 17.1036C17.5268 17.5443 17.4065 18.0341 17.4062 18.5312C17.4062 19.0741 17.71 19.7856 18.1178 20.5H16.8438V19.0938C16.8438 18.6462 16.666 18.217 16.3495 17.9005C16.033 17.584 15.6038 17.4062 15.1562 17.4062C14.7087 17.4062 14.2795 17.584 13.963 17.9005C13.6465 18.217 13.4688 18.6462 13.4688 19.0938V20.5H9.8125V9.25H20.5V15.4375C20.3113 15.4382 20.123 15.456 19.9375 15.4909V13.4688C19.9375 13.3942 19.9079 13.3226 19.8551 13.2699C19.8024 13.2171 19.7308 13.1875 19.6562 13.1875ZM19.375 13.75V15.4375H18.25V13.75H19.375ZM16.2812 19.0938V20.5H14.0312V19.0938C14.0312 18.7954 14.1498 18.5092 14.3608 18.2983C14.5717 18.0873 14.8579 17.9688 15.1562 17.9688C15.4546 17.9688 15.7408 18.0873 15.9517 18.2983C16.1627 18.5092 16.2812 18.7954 16.2812 19.0938ZM8.96875 21.3438V21.0625H18.4581C18.52 21.1581 18.5819 21.2509 18.6438 21.3438H8.96875ZM17.9688 18.5312C17.9688 17.8599 18.2354 17.2161 18.7101 16.7414C19.1848 16.2667 19.8287 16 20.5 16C21.1713 16 21.8152 16.2667 22.2899 16.7414C22.7646 17.2161 23.0312 17.8599 23.0312 18.5312C23.0312 19.6197 21.3634 21.8416 20.5 22.8794C19.6366 21.8416 17.9688 19.6197 17.9688 18.5312ZM20.5 23.875C19.42 23.875 18.8462 23.5656 18.8125 23.4587C18.8378 23.3716 19.1978 23.1494 19.9262 23.0678C20.1259 23.3125 20.2638 23.47 20.2891 23.4981C20.3155 23.5281 20.3479 23.552 20.3843 23.5684C20.4207 23.5849 20.4601 23.5933 20.5 23.5933C20.5399 23.5933 20.5793 23.5849 20.6157 23.5684C20.6521 23.552 20.6845 23.5281 20.7109 23.4981C20.7362 23.47 20.8741 23.3125 21.0738 23.0678C21.8022 23.1494 22.1622 23.3716 22.1875 23.4475C22.1538 23.5656 21.58 23.875 20.5 23.875Z" fill="#8C94A4"/>
<path d="M19.9375 12.0625V10.0938C19.9375 10.0192 19.9079 9.94762 19.8551 9.89488C19.8024 9.84213 19.7308 9.8125 19.6562 9.8125H17.9688C17.8942 9.8125 17.8226 9.84213 17.7699 9.89488C17.7171 9.94762 17.6875 10.0192 17.6875 10.0938V12.0625H17.4062V12.625H20.2188V12.0625H19.9375ZM19.375 12.0625H18.25V10.375H19.375V12.0625Z" fill="#8C94A4"/>
<path d="M16.2812 12.0625V10.0938C16.2812 10.0192 16.2516 9.94762 16.1989 9.89488C16.1461 9.84213 16.0746 9.8125 16 9.8125H14.3125C14.2379 9.8125 14.1664 9.84213 14.1136 9.89488C14.0609 9.94762 14.0312 10.0192 14.0312 10.0938V12.0625H13.75V12.625H16.5625V12.0625H16.2812ZM15.7188 12.0625H14.5938V10.375H15.7188V12.0625Z" fill="#8C94A4"/>
<path d="M12.625 12.0625V10.0938C12.625 10.0192 12.5954 9.94762 12.5426 9.89488C12.4899 9.84213 12.4183 9.8125 12.3438 9.8125H10.6563C10.5817 9.8125 10.5101 9.84213 10.4574 9.89488C10.4046 9.94762 10.375 10.0192 10.375 10.0938V12.0625H10.0938V12.625H12.9063V12.0625H12.625ZM12.0625 12.0625H10.9375V10.375H12.0625V12.0625Z" fill="#8C94A4"/>
<path d="M12.625 15.4375V13.4688C12.625 13.3942 12.5954 13.3226 12.5426 13.2699C12.4899 13.2171 12.4183 13.1875 12.3438 13.1875H10.6563C10.5817 13.1875 10.5101 13.2171 10.4574 13.2699C10.4046 13.3226 10.375 13.3942 10.375 13.4688V15.4375H10.0938V16H12.9063V15.4375H12.625ZM12.0625 15.4375H10.9375V13.75H12.0625V15.4375Z" fill="#8C94A4"/>
<path d="M16.2812 15.4375V13.4688C16.2812 13.3942 16.2516 13.3226 16.1989 13.2699C16.1461 13.2171 16.0746 13.1875 16 13.1875H14.3125C14.2379 13.1875 14.1664 13.2171 14.1136 13.2699C14.0609 13.3226 14.0312 13.3942 14.0312 13.4688V15.4375H13.75V16H16.5625V15.4375H16.2812ZM15.7188 15.4375H14.5938V13.75H15.7188V15.4375Z" fill="#8C94A4"/>
</svg>
