<svg width="21" height="24" viewBox="0 0 21 24" fill="none" xmlns="http://www.w3.org/2000/svg">
<path d="M20.6727 3.43636C20.3454 2.18181 18.6 0 10.3636 0C6.49091 0 3.65455 0.436357 2.01819 1.25454C0.163643 2.18181 0 3.43636 0 3.81818V11.0727C0 15.6 2.45455 19.8 6.38182 21.9818L9.54545 23.7818C9.81818 23.9454 10.0909 24 10.3636 24C10.6364 24 10.9091 23.9454 11.1818 23.7818L14.3454 21.9818C18.2727 19.7454 20.7273 15.6 20.7273 11.0727V3.81818C20.7273 3.70909 20.7273 3.54545 20.6727 3.43636ZM19.0909 11.0727C19.0909 15 16.9636 18.6546 13.5273 20.5636L10.3636 22.3636L7.20001 20.5636C3.76364 18.6546 1.63636 15 1.63636 11.0727V3.81818C1.63636 3.81818 1.63636 1.63636 10.3636 1.63636C18.5455 1.63636 19.0909 3.81818 19.0909 3.81818V11.0727Z" fill="black"/>
<path d="M15.2181 7.58183L9.81808 12.9818L6.5999 9.76365C6.27262 9.43638 5.78171 9.43638 5.45444 9.76365C5.12717 10.0909 5.12717 10.5818 5.45444 10.9091L9.27262 14.7273C9.43626 14.8909 9.65444 14.9455 9.87262 14.9455C10.0908 14.9455 10.309 14.8909 10.4726 14.7273L16.4726 8.72728C16.7999 8.4 16.7999 7.90911 16.4726 7.58183C16.0908 7.30911 15.5453 7.30911 15.2181 7.58183Z" fill="black"/>
</svg>
