<svg width="18" height="18" viewBox="0 0 18 18" fill="none" xmlns="http://www.w3.org/2000/svg">
<path fill-rule="evenodd" clip-rule="evenodd" d="M7.08755 1.79961C7.08755 1.24042 7.54087 0.787109 8.10005 0.787109H16.2001C16.7592 0.787109 17.2126 1.24042 17.2126 1.79961V16.1996C17.2126 16.7588 16.7592 17.2121 16.2001 17.2121H8.10005C7.54087 17.2121 7.08755 16.7588 7.08755 16.1996C7.08755 15.6404 7.54087 15.1871 8.10005 15.1871H15.1876V2.81211H8.10005C7.54087 2.81211 7.08755 2.3588 7.08755 1.79961ZM4.24412 7.98727L6.11589 6.1155C6.5113 5.72009 6.5113 5.07901 6.11589 4.68361C5.72049 4.2882 5.07941 4.2882 4.684 4.68361L1.084 8.28361C0.894119 8.47349 0.787445 8.73102 0.787445 8.99955C0.787445 9.26809 0.894119 9.52562 1.084 9.7155L4.684 13.3155C5.07941 13.7109 5.72049 13.7109 6.11589 13.3155C6.5113 12.9201 6.5113 12.279 6.11589 11.8836L4.24456 10.0123H12.6C13.1592 10.0123 13.6125 9.55896 13.6125 8.99977C13.6125 8.44059 13.1592 7.98727 12.6 7.98727H4.24412Z" fill="#878787"/>
</svg>
