<svg width="26" height="26" viewBox="0 0 26 26" fill="none" xmlns="http://www.w3.org/2000/svg">
<path d="M22.3438 6.09375H21.9375V3.65625C21.9375 3.33302 21.8091 3.02302 21.5805 2.79446C21.352 2.5659 21.042 2.4375 20.7188 2.4375H20.3125V2.03125C20.3125 1.70802 20.1841 1.39802 19.9555 1.16946C19.727 0.940904 19.417 0.8125 19.0938 0.8125H3.65625C3.33302 0.8125 3.02302 0.940904 2.79446 1.16946C2.5659 1.39802 2.4375 1.70802 2.4375 2.03125V22.3438C2.4375 22.667 2.5659 22.977 2.79446 23.2055C3.02302 23.4341 3.33302 23.5625 3.65625 23.5625H4.0625V23.9688C4.0625 24.292 4.1909 24.602 4.41946 24.8305C4.64802 25.0591 4.95802 25.1875 5.28125 25.1875H20.7188C21.042 25.1875 21.352 25.0591 21.5805 24.8305C21.8091 24.602 21.9375 24.292 21.9375 23.9688V16.6562H22.3438C22.667 16.6562 22.977 16.5278 23.2055 16.2993C23.4341 16.0707 23.5625 15.7607 23.5625 15.4375V7.3125C23.5625 6.98927 23.4341 6.67927 23.2055 6.45071C22.977 6.22215 22.667 6.09375 22.3438 6.09375ZM20.7188 3.25C20.8265 3.25 20.9298 3.2928 21.006 3.36899C21.0822 3.44517 21.125 3.54851 21.125 3.65625V6.09375H20.3125V3.25H20.7188ZM5.6875 1.625H6.5V2.72187L6.43175 2.6195C6.39245 2.56695 6.34143 2.5243 6.28276 2.49491C6.22409 2.46553 6.15937 2.45023 6.09375 2.45023C6.02813 2.45023 5.96341 2.46553 5.90474 2.49491C5.84607 2.5243 5.79505 2.56695 5.75575 2.6195L5.6875 2.72187V1.625ZM3.25 22.3438V2.03125C3.25 1.92351 3.2928 1.82017 3.36899 1.74399C3.44517 1.6678 3.54851 1.625 3.65625 1.625H4.875V4.0625C4.87498 4.1497 4.90302 4.23458 4.95496 4.30462C5.00691 4.37465 5.08001 4.42611 5.16346 4.45139C5.24691 4.47667 5.33628 4.47443 5.41836 4.445C5.50044 4.41557 5.57088 4.36052 5.61925 4.28797L6.09375 3.575L6.56825 4.28675C6.61657 4.35921 6.68689 4.41423 6.76885 4.44368C6.85081 4.47314 6.94006 4.47548 7.02345 4.45035C7.10684 4.42523 7.17995 4.37397 7.23199 4.30413C7.28404 4.2343 7.31226 4.14959 7.3125 4.0625V1.625H19.0938C19.2015 1.625 19.3048 1.6678 19.381 1.74399C19.4572 1.82017 19.5 1.92351 19.5 2.03125V6.09375H6.90625C6.58302 6.09375 6.27302 6.22215 6.04446 6.45071C5.8159 6.67927 5.6875 6.98927 5.6875 7.3125V15.4375C5.6875 15.7607 5.8159 16.0707 6.04446 16.2993C6.27302 16.5278 6.58302 16.6562 6.90625 16.6562H19.5V22.3438C19.5 22.4515 19.4572 22.5548 19.381 22.631C19.3048 22.7072 19.2015 22.75 19.0938 22.75H3.65625C3.54851 22.75 3.44517 22.7072 3.36899 22.631C3.2928 22.5548 3.25 22.4515 3.25 22.3438ZM21.125 23.9688C21.125 24.0765 21.0822 24.1798 21.006 24.256C20.9298 24.3322 20.8265 24.375 20.7188 24.375H5.28125C5.17351 24.375 5.07017 24.3322 4.99399 24.256C4.9178 24.1798 4.875 24.0765 4.875 23.9688V23.5625H19.0938C19.417 23.5625 19.727 23.4341 19.9555 23.2055C20.1841 22.977 20.3125 22.667 20.3125 22.3438V16.6562H21.125V23.9688ZM22.75 15.4375C22.75 15.5452 22.7072 15.6486 22.631 15.7248C22.5548 15.8009 22.4515 15.8438 22.3438 15.8438H6.90625C6.79851 15.8438 6.69517 15.8009 6.61899 15.7248C6.5428 15.6486 6.5 15.5452 6.5 15.4375V7.3125C6.5 7.20476 6.5428 7.10142 6.61899 7.02524C6.69517 6.94905 6.79851 6.90625 6.90625 6.90625H22.3438C22.4515 6.90625 22.5548 6.94905 22.631 7.02524C22.7072 7.10142 22.75 7.20476 22.75 7.3125V15.4375Z" fill="black"/>
<path d="M10.1562 8.9375H9.34375V13.4062C9.34375 13.514 9.38655 13.6173 9.46274 13.6935C9.53892 13.7697 9.64226 13.8125 9.75 13.8125H11.7812V13H10.1562V8.9375Z" fill="black"/>
<path d="M14.625 8.9375H13.8125C13.4893 8.9375 13.1793 9.0659 12.9507 9.29446C12.7222 9.52302 12.5938 9.83302 12.5938 10.1562V12.5938C12.5938 12.917 12.7222 13.227 12.9507 13.4555C13.1793 13.6841 13.4893 13.8125 13.8125 13.8125H14.625C14.9482 13.8125 15.2582 13.6841 15.4868 13.4555C15.7153 13.227 15.8438 12.917 15.8438 12.5938V10.1562C15.8438 9.83302 15.7153 9.52302 15.4868 9.29446C15.2582 9.0659 14.9482 8.9375 14.625 8.9375ZM15.0312 12.5938C15.0312 12.7015 14.9884 12.8048 14.9123 12.881C14.8361 12.9572 14.7327 13 14.625 13H13.8125C13.7048 13 13.6014 12.9572 13.5252 12.881C13.4491 12.8048 13.4062 12.7015 13.4062 12.5938V10.1562C13.4062 10.0485 13.4491 9.94517 13.5252 9.86899C13.6014 9.7928 13.7048 9.75 13.8125 9.75H14.625C14.7327 9.75 14.8361 9.7928 14.9123 9.86899C14.9884 9.94517 15.0312 10.0485 15.0312 10.1562V12.5938Z" fill="black"/>
<path d="M17.875 9.75H18.6875C18.7952 9.75 18.8986 9.7928 18.9748 9.86899C19.0509 9.94517 19.0938 10.0485 19.0938 10.1562H19.9062C19.9062 9.83302 19.7778 9.52302 19.5493 9.29446C19.3207 9.0659 19.0107 8.9375 18.6875 8.9375H17.875C17.5518 8.9375 17.2418 9.0659 17.0132 9.29446C16.7847 9.52302 16.6562 9.83302 16.6562 10.1562V12.5938C16.6562 12.917 16.7847 13.227 17.0132 13.4555C17.2418 13.6841 17.5518 13.8125 17.875 13.8125H18.6875C19.0107 13.8125 19.3207 13.6841 19.5493 13.4555C19.7778 13.227 19.9062 12.917 19.9062 12.5938V11.375C19.9062 11.2673 19.8634 11.1639 19.7873 11.0877C19.7111 11.0116 19.6077 10.9688 19.5 10.9688H18.2812V11.7812H19.0938V12.5938C19.0938 12.7015 19.0509 12.8048 18.9748 12.881C18.8986 12.9572 18.7952 13 18.6875 13H17.875C17.7673 13 17.6639 12.9572 17.5877 12.881C17.5116 12.8048 17.4688 12.7015 17.4688 12.5938V10.1562C17.4688 10.0485 17.5116 9.94517 17.5877 9.86899C17.6639 9.7928 17.7673 9.75 17.875 9.75Z" fill="black"/>
</svg>
