<svg width="30" height="30" viewBox="0 0 30 30" fill="none" xmlns="http://www.w3.org/2000/svg">
<circle cx="15" cy="15" r="15" fill="#E5E8ED"/>
<g clip-path="url(#clip0)">
<path d="M17.5842 16.0146L22.9333 19.3962V12.4902L17.5842 16.0146Z" fill="#8C94A4"/>
<path d="M7.06665 12.4902V19.3962L12.4157 16.0146L7.06665 12.4902Z" fill="#8C94A4"/>
<path d="M21.9417 10.4792H8.05835C7.56351 10.4792 7.17081 10.8481 7.09644 11.3232L15 16.5304L22.9036 11.3232C22.8292 10.8481 22.4365 10.4792 21.9417 10.4792Z" fill="#8C94A4"/>
<path d="M16.6759 16.6135L15.2727 17.5378C15.1894 17.5923 15.0952 17.6191 15 17.6191C14.9048 17.6191 14.8106 17.5923 14.7273 17.5378L13.3241 16.6125L7.09839 20.5505C7.17475 21.0215 7.56546 21.3874 8.05832 21.3874H21.9417C22.4345 21.3874 22.8252 21.0215 22.9016 20.5505L16.6759 16.6135Z" fill="#8C94A4"/>
</g>
<defs>
<clipPath id="clip0">
<rect x="8" y="8" width="14" height="14" fill="white"/>
</clipPath>
</defs>
</svg>
