<svg width="18" height="18" viewBox="0 0 18 18" fill="none" xmlns="http://www.w3.org/2000/svg">
<path fill-rule="evenodd" clip-rule="evenodd" d="M3.37495 0.224609C2.87789 0.224609 2.47495 0.627553 2.47495 1.12461V16.8746C2.47495 17.3717 2.87789 17.7746 3.37495 17.7746H14.6249C15.122 17.7746 15.5249 17.3717 15.5249 16.8746V3.98825C15.5249 3.75236 15.4323 3.5259 15.267 3.35761L12.4545 0.493972C12.2853 0.32167 12.054 0.224609 11.8124 0.224609H3.37495ZM4.27495 15.9746V2.02461H11.4349L13.7249 4.3563V15.9746H4.27495ZM5.625 5.39961H7.875V3.59961H5.625V5.39961ZM12.375 11.0246H5.625V9.22461H12.375V11.0246ZM5.625 14.3996H12.375V12.5996H5.625V14.3996Z" fill="#878787"/>
</svg>
