<svg width="20" height="20" viewBox="0 0 20 20" fill="none" xmlns="http://www.w3.org/2000/svg">
<path d="M17.7875 13.2861C16.5917 13.2861 15.4347 13.0917 14.3556 12.7417C14.0153 12.625 13.6361 12.7125 13.3736 12.975L11.8472 14.8903C9.09583 13.5778 6.51944 11.0986 5.14861 8.25L7.04444 6.63611C7.30694 6.36389 7.38472 5.98472 7.27778 5.64444C6.91806 4.56528 6.73333 3.40833 6.73333 2.2125C6.73333 1.6875 6.29583 1.25 5.77083 1.25H2.40694C1.88194 1.25 1.25 1.48333 1.25 2.2125C1.25 11.2444 8.76528 18.75 17.7875 18.75C18.4778 18.75 18.75 18.1375 18.75 17.6028V14.2486C18.75 13.7236 18.3125 13.2861 17.7875 13.2861Z" fill="#3E74F4"/>
</svg>
