<svg width="30" height="30" viewBox="0 0 30 30" fill="none" xmlns="http://www.w3.org/2000/svg">
<circle cx="15" cy="15" r="15" fill="#E5E8ED"/>
<path d="M15 7C10.5889 7 7 10.5889 7 15C7 19.4111 10.5889 23 15 23C19.4111 23 23 19.4111 23 15C23 10.5889 19.4111 7 15 7ZM15 22.3333C10.9564 22.3333 7.66666 19.0436 7.66666 15C7.66666 10.9564 10.9564 7.66666 15 7.66666C19.0436 7.66666 22.3333 10.9564 22.3333 15C22.3333 19.0436 19.0436 22.3333 15 22.3333Z" fill="#8C94A4"/>
<path d="M18.2358 11.7644C18.1055 11.6342 17.8946 11.6342 17.7644 11.7644L15.0001 14.5288L12.2358 11.7644C12.1055 11.6342 11.8946 11.6342 11.7644 11.7644C11.6342 11.8947 11.6342 12.1056 11.7644 12.2358L14.5287 15.0001L11.7644 17.7644C11.6342 17.8946 11.6342 18.1056 11.7644 18.2357C11.8295 18.3008 11.9148 18.3334 12.0001 18.3334C12.0854 18.3334 12.1707 18.3008 12.2358 18.2357L15.0001 15.4714L17.7644 18.2357C17.8295 18.3008 17.9148 18.3334 18.0001 18.3334C18.0854 18.3334 18.1706 18.3008 18.2358 18.2357C18.366 18.1055 18.366 17.8946 18.2358 17.7644L15.4714 15.0001L18.2357 12.2358C18.3659 12.1056 18.3659 11.8946 18.2358 11.7644Z" fill="#8C94A4"/>
</svg>
