<svg width="30" height="30" viewBox="0 0 30 30" fill="none" xmlns="http://www.w3.org/2000/svg">
<circle cx="15" cy="15" r="15" fill="#F5F4D9"/>
<g clip-path="url(#clip0)">
<path d="M16.2452 6.03516C16.0511 6.03516 15.8937 6.19254 15.8937 6.38672C15.8937 6.5809 16.0511 6.73828 16.2452 6.73828C20.1336 6.73828 23.2969 9.90166 23.2969 13.79C23.2969 13.984 23.4543 14.1416 23.6485 14.1416C23.8427 14.1416 24.0001 13.984 24.0001 13.79C24.0001 9.51398 20.5213 6.03516 16.2452 6.03516Z" fill="#E6C657"/>
<path d="M16.2452 8.15015C16.0511 8.15015 15.8937 8.30766 15.8937 8.50185C15.8937 8.69589 16.0511 8.85341 16.2452 8.85341C18.9672 8.85341 21.1818 11.0678 21.1818 13.79C21.1818 13.984 21.3392 14.1415 21.5334 14.1415C21.7276 14.1415 21.8849 13.984 21.8849 13.79C21.8849 10.6802 19.3551 8.15015 16.2452 8.15015Z" fill="#E6C657"/>
<path d="M19.0664 13.7899C19.0664 13.9839 19.2238 14.1415 19.418 14.1415C19.6121 14.1415 19.7695 13.9839 19.7695 13.7899C19.7695 11.8466 18.1886 10.2656 16.2452 10.2656C16.0511 10.2656 15.8937 10.423 15.8937 10.6172C15.8937 10.8114 16.0511 10.9687 16.2452 10.9687C17.8008 10.9687 19.0664 12.2342 19.0664 13.7899Z" fill="#E6C657"/>
<path d="M15.8937 12.7324C15.8937 12.9265 16.0511 13.084 16.2452 13.084C16.6346 13.084 16.9512 13.4007 16.9512 13.79C16.9512 13.984 17.1086 14.1416 17.3028 14.1416C17.497 14.1416 17.6544 13.984 17.6544 13.79C17.6544 13.0128 17.0222 12.3809 16.2452 12.3809C16.0511 12.3809 15.8937 12.5382 15.8937 12.7324Z" fill="#E6C657"/>
<path d="M12.7142 17.3688C12.7142 17.563 12.5569 17.7204 12.3627 17.7204C12.1685 17.7204 12.0111 17.563 12.0111 17.3688C12.0111 17.1746 12.1685 17.0171 12.3627 17.0171C12.5569 17.0171 12.7142 17.1746 12.7142 17.3688Z" fill="#E6C657"/>
<path d="M18.482 17.7559C18.0708 17.3446 17.4016 17.3446 16.9905 17.7559L15.8335 18.9129C15.6148 19.1315 15.2042 19.1707 14.9368 18.9986C14.5324 18.7379 14.1381 18.4519 13.7653 18.1483C13.6146 18.0258 13.3933 18.0484 13.2706 18.1991C13.1481 18.3497 13.1708 18.5711 13.3214 18.6936C13.7145 19.0136 14.1298 19.315 14.556 19.5897C15.1001 19.9401 15.8796 19.8612 16.3307 19.41L17.4877 18.253C17.6249 18.116 17.8478 18.1161 17.9849 18.253L20.7194 20.9879C20.8564 21.125 20.8564 21.348 20.7194 21.4851L19.696 22.5085C18.8687 23.3357 17.5925 23.5612 16.5204 23.0696C11.1525 20.6092 8.35425 16.4768 6.95225 13.4435C6.46913 12.3987 6.70149 11.1395 7.53068 10.3105L8.53799 9.30329C8.67518 9.16596 8.89738 9.16555 9.03499 9.30329L11.7699 12.0382C11.907 12.1753 11.907 12.3981 11.7699 12.5352L10.6129 13.6923C10.1618 14.1435 10.0829 14.9229 10.4334 15.467C10.6321 15.7753 10.8455 16.0791 11.0679 16.3701C11.1858 16.5243 11.4065 16.5539 11.5607 16.4359C11.715 16.3181 11.7445 16.0974 11.6267 15.9432C11.4156 15.667 11.213 15.3787 11.0245 15.0861C10.8523 14.8188 10.8915 14.4081 11.1102 14.1895L12.2672 13.0325C12.6793 12.6203 12.6794 11.9532 12.2672 11.5409L9.53226 8.80602C9.11999 8.39376 8.45299 8.39376 8.04059 8.80602L7.03341 9.8132C5.99672 10.8499 5.70764 12.4274 6.31381 13.7385C8.34271 18.1278 11.7534 21.6581 16.2273 23.7089C17.5604 24.3201 19.1553 24.0435 20.1931 23.0057L21.2166 21.9823C21.6278 21.571 21.6278 20.902 21.2166 20.4908L18.482 17.7559Z" fill="#E6C657"/>
</g>
<defs>
<clipPath id="clip0">
<rect x="6" y="6" width="18" height="18" fill="white"/>
</clipPath>
</defs>
</svg>
