<svg width="30" height="30" viewBox="0 0 30 30" fill="none" xmlns="http://www.w3.org/2000/svg">
<circle cx="15" cy="15" r="15" fill="#F5F4D9"/>
<path d="M21.619 20.4953L20.4744 18.5873C19.9457 17.7067 19.6664 16.698 19.6664 15.6713V14C19.6664 11.89 18.2584 10.1053 16.333 9.53V8.33334C16.333 7.598 15.735 7 14.9997 7C14.2643 7 13.6663 7.598 13.6663 8.33334V9.53C11.741 10.1053 10.333 11.89 10.333 14V15.6713C10.333 16.698 10.0537 17.706 9.52568 18.5867L8.38102 20.4947C8.31902 20.598 8.31768 20.726 8.37702 20.8307C8.43637 20.9353 8.54637 21 8.66637 21H21.333C21.453 21 21.5637 20.9354 21.623 20.8314C21.6824 20.7273 21.6804 20.598 21.619 20.4953Z" fill="#E5C657"/>
<path d="M12.9006 21.6666C13.2766 22.452 14.0726 23 14.9999 23C15.9273 23 16.7233 22.452 17.0993 21.6666H12.9006V21.6666Z" fill="#E5C657"/>
</svg>
