<svg width="24" height="24" viewBox="0 0 24 24" fill="none" xmlns="http://www.w3.org/2000/svg">
<path d="M12 0C5.4 0 0 5.4 0 12C0 18.6 5.4 24 12 24C18.6 24 24 18.6 24 12C24 5.4 18.6 0 12 0ZM12 22.3636C6.27273 22.3636 1.63636 17.7273 1.63636 12C1.63636 6.27273 6.27273 1.63636 12 1.63636C17.7273 1.63636 22.3636 6.27273 22.3636 12C22.3636 17.7273 17.7273 22.3636 12 22.3636Z" fill="black"/>
<path d="M17.4546 11.4545H12.5455V5.45453C12.5455 5.01817 12.1637 4.63635 11.7274 4.63635C11.291 4.63635 10.9092 5.01817 10.9092 5.45453V13.0909H12.0001H12.5455H17.4546C17.891 13.0909 18.2728 12.7091 18.2728 12.2727C18.2728 11.8364 17.891 11.4545 17.4546 11.4545Z" fill="black"/>
</svg>
