<svg width="20" height="20" viewBox="0 0 20 20" fill="none" xmlns="http://www.w3.org/2000/svg">
<path d="M10.5417 8.33333C9.85833 6.39167 8.00833 5 5.83333 5C3.07499 5 0.833328 7.24167 0.833328 10C0.833328 12.7583 3.07499 15 5.83333 15C8.00833 15 9.85833 13.6083 10.5417 11.6667H14.1667V15H17.5V11.6667H19.1667V8.33333H10.5417ZM5.83333 11.6667C4.91666 11.6667 4.16666 10.9167 4.16666 10C4.16666 9.08333 4.91666 8.33333 5.83333 8.33333C6.74999 8.33333 7.49999 9.08333 7.49999 10C7.49999 10.9167 6.74999 11.6667 5.83333 11.6667Z" fill="#C1C1C1"/>
</svg>
