<svg width="24" height="24" viewBox="0 0 24 24" fill="none" xmlns="http://www.w3.org/2000/svg">
<path d="M12 0C5.4 0 0 5.4 0 12C0 18.6 5.4 24 12 24C18.6 24 24 18.6 24 12C24 5.4 18.6 0 12 0ZM1.63636 12C1.63636 6.27273 6.27273 1.63636 12 1.63636C17.7273 1.63636 22.3636 6.27273 22.3636 12C22.3636 14.4 21.5455 16.6364 20.1273 18.3818C18.9818 16.6909 17.1818 15.1091 14.9455 14.3454C15.8182 13.4727 16.3636 12.1636 16.3636 10.7454C16.3636 8.01817 14.4 5.83635 12 5.83635C9.6 5.83635 7.63636 8.01817 7.63636 10.7454C7.63636 12.2182 8.23637 13.5273 9.16364 14.4545C7.03637 15.2182 5.18182 16.7454 4.09091 18.6545C2.56364 16.9091 1.63636 14.5636 1.63636 12ZM12.2727 13.9091C12 13.9091 11.6727 13.9091 11.4 13.9636C10.2 13.6364 9.27273 12.3273 9.27273 10.8C9.27273 8.99999 10.4727 7.52727 12 7.52727C13.5273 7.52727 14.7273 8.99999 14.7273 10.8C14.7273 12.3273 13.8545 13.5818 12.7091 13.9636C12.5455 13.9636 12.4364 13.9091 12.2727 13.9091ZM5.29091 19.9091C6.32727 17.7818 8.61818 15.9818 11.2909 15.6545C11.5091 15.7091 11.7273 15.7091 12 15.7091C12.3273 15.7091 12.6 15.6545 12.9273 15.6C15.5455 15.8727 17.8364 17.6727 19.0364 19.6364C17.1818 21.3273 14.7273 22.3636 12.0545 22.3636C9.43637 22.3636 7.09091 21.4364 5.29091 19.9091Z" fill="black"/>
</svg>
