<svg width="18" height="18" viewBox="0 0 18 18" fill="none" xmlns="http://www.w3.org/2000/svg">
<path fill-rule="evenodd" clip-rule="evenodd" d="M8.99999 3.15C8.99999 3.89558 8.39557 4.5 7.64998 4.5C6.9044 4.5 6.29998 3.89558 6.29998 3.15C6.29998 2.40442 6.9044 1.8 7.64998 1.8C8.39557 1.8 8.99999 2.40442 8.99999 3.15ZM10.8 3.15C10.8 4.8897 9.38968 6.3 7.64998 6.3C5.91029 6.3 4.49998 4.8897 4.49998 3.15C4.49998 1.4103 5.91029 0 7.64998 0C9.38968 0 10.8 1.4103 10.8 3.15ZM2.33948 11.372C2.39471 10.0463 3.4855 9.00003 4.81233 9.00003H12.15C12.6471 9.00003 13.05 8.59708 13.05 8.10003C13.05 7.60297 12.6471 7.20003 12.15 7.20003H4.81233C2.52054 7.20003 0.636445 9.00725 0.541037 11.2971L0.450807 13.4626C0.430114 13.9592 0.815934 14.3786 1.31256 14.3992C1.80918 14.4199 2.22855 14.0341 2.24925 13.5375L2.33948 11.372ZM4.04996 10.8001C4.04996 10.303 4.4529 9.90005 4.94996 9.90005H5.84996C6.34701 9.90005 6.74996 10.303 6.74996 10.8001C6.74996 11.2971 6.34701 11.7001 5.84996 11.7001H4.94996C4.4529 11.7001 4.04996 11.2971 4.04996 10.8001ZM15.6824 9.67325L14.4 8.81831L13.1176 9.67325C12.8958 9.82109 12.6352 9.89998 12.3687 9.89998H10.8V14.0958C10.8 15.149 11.3263 16.1326 12.2027 16.7168L14.4 18.1816L16.5973 16.7168C17.4736 16.1326 18 15.149 18 14.0958V9.89998H16.4312C16.1647 9.89998 15.9041 9.82109 15.6824 9.67325ZM14.116 11.1709L14.4 10.9816L14.6839 11.1709C15.137 11.473 15.6595 11.6517 16.2 11.6915V14.0958C16.2 14.5472 15.9744 14.9687 15.5988 15.2191L14.4 16.0183L13.2011 15.2191C12.8255 14.9687 12.6 14.5472 12.6 14.0958V11.6915C13.1404 11.6517 13.6629 11.473 14.116 11.1709Z" fill="#878787"/>
</svg>
