<svg width="25" height="24" viewBox="0 0 25 24" fill="none" xmlns="http://www.w3.org/2000/svg">
<g clip-path="url(#clip0)">
<path d="M21.9415 12.3207C21.9384 12.3207 21.9353 12.3208 21.9322 12.3208H12.0797V2.54507C12.0783 2.19015 11.7869 1.90331 11.428 1.9035C8.46436 1.89375 5.62008 3.0571 3.52934 5.1341C1.42778 7.24875 0.269653 10.0193 0.269653 12.9355C0.269653 19.0186 5.27389 23.9676 11.4253 23.9676C14.3884 23.9774 17.2321 22.814 19.3222 20.7371C21.4238 18.6223 22.5811 15.8651 22.5811 12.9489C22.58 12.6007 22.2935 12.3195 21.9415 12.3207ZM18.4006 19.8471C16.553 21.6787 14.041 22.7029 11.4249 22.6913C5.9889 22.6913 1.56642 18.3146 1.56642 12.939C1.56642 10.3612 2.59466 7.90835 4.45229 6.03915C6.14065 4.36088 8.3928 3.35324 10.7822 3.20716V12.9356C10.7822 13.2899 11.0667 13.6039 11.4249 13.6039H21.2622C21.0943 15.9565 20.079 18.1716 18.4006 19.8471Z" fill="#3A3A3A"/>
<path d="M21.2804 3.256C21.2778 3.25356 21.2751 3.25761 21.2725 3.25498C19.134 1.17682 16.3292 0.0322724 13.3803 0.0322724C13.0214 0.03208 12.7299 0.318923 12.7285 0.673836V11.0644C12.7285 11.4187 13.025 11.6792 13.3833 11.6792H23.8906C24.2425 11.6854 24.533 11.4083 24.5392 11.0602C24.5393 11.0572 24.5393 11.0541 24.5394 11.051C24.5394 8.13477 23.382 5.37085 21.2804 3.256ZM14.0261 10.3961V1.33644C16.4265 1.48997 18.62 2.46771 20.3559 4.15291C22.06 5.86941 23.0653 8.08646 23.2206 10.3961H14.0261Z" fill="#3A3A3A"/>
</g>
<defs>
<clipPath id="clip0">
<rect x="0.269653" width="24.2697" height="24" fill="white"/>
</clipPath>
</defs>
</svg>
