<svg width="23" height="24" viewBox="0 0 23 24" fill="none" xmlns="http://www.w3.org/2000/svg">
<path d="M11.1023 2.78229C13.1377 2.78229 15.0497 3.46078 16.5917 4.57101L14.0629 4.94107C13.5694 5.00275 13.1994 5.49619 13.261 5.98962C13.3227 6.42138 13.6928 6.79145 14.1862 6.79145C14.2479 6.79145 14.2479 6.79145 14.3096 6.79145L18.6271 6.17466C19.1206 6.11298 19.4907 5.61953 19.429 5.1261L18.8122 0.808549C18.7505 0.315114 18.2571 -0.0549538 17.7636 0.00672554C17.2702 0.0684048 16.9001 0.561847 16.9618 1.05528L17.2085 2.78229C15.4815 1.61039 13.3844 0.931915 11.1023 0.931915C4.99602 0.931915 0 5.92794 0 12.0342C0 13.2678 0.185039 14.4397 0.555115 15.5499L2.03542 14.0696C1.91206 13.4528 1.7887 12.7743 1.7887 12.0342C1.85038 6.91481 5.98289 2.78229 11.1023 2.78229Z" fill="black"/>
<path d="M21.6496 8.51846L20.1693 9.99878C20.2926 10.6156 20.416 11.294 20.416 12.0342C20.416 17.1536 16.2835 21.2861 11.1641 21.2861C9.06699 21.2861 7.15494 20.6076 5.61295 19.374L7.58669 19.0656C8.08013 19.004 8.4502 18.5105 8.38852 18.0171C8.32684 17.5237 7.83341 17.1536 7.33998 17.2153L3.02243 17.8321C2.52899 17.8937 2.15891 18.3871 2.22059 18.8806L2.83739 23.1981C2.89906 23.6299 3.26914 24 3.76258 24C3.82425 24 3.82426 24 3.88594 24C4.37937 23.9383 4.74944 23.4449 4.68776 22.9514L4.37937 20.731C6.29143 22.2113 8.63524 23.0748 11.1641 23.0748C17.2703 23.0748 22.2664 18.0788 22.2664 11.9725C22.2047 10.8006 22.0196 9.62869 21.6496 8.51846Z" fill="black"/>
</svg>
