<svg width="18" height="18" viewBox="0 0 18 18" fill="none" xmlns="http://www.w3.org/2000/svg">
<g clip-path="url(#clip0)">
<path fill-rule="evenodd" clip-rule="evenodd" d="M14.85 2.23008H0V0.830078H14.85V2.23008ZM10.1433 5.83009H0V4.43009H14.4V5.62691C13.8247 5.47883 13.2215 5.40008 12.6 5.40008C11.7372 5.40008 10.9099 5.55182 10.1433 5.83009ZM7.036 8.03008H0V9.43008H6.1336C6.38036 8.92766 6.68396 8.4582 7.036 8.03008ZM5.4336 11.9001H0V13.3001H5.4336C5.41138 13.0697 5.40001 12.8362 5.40001 12.6001C5.40001 12.3639 5.41138 12.1304 5.4336 11.9001Z" fill="#8C8C8C"/>
<path fill-rule="evenodd" clip-rule="evenodd" d="M12.6 18.0002C15.5824 18.0002 18 15.5825 18 12.6002C18 9.61786 15.5824 7.2002 12.6 7.2002C9.61767 7.2002 7.20001 9.61786 7.20001 12.6002C7.20001 15.5825 9.61767 18.0002 12.6 18.0002ZM11.8125 9.90018V12.6002V12.9264L12.0432 13.157L14.7432 15.857L15.8569 14.7433L13.3875 12.274V9.90018H11.8125Z" fill="#8C8C8C"/>
</g>
<defs>
<clipPath id="clip0">
<rect width="18" height="18" fill="white"/>
</clipPath>
</defs>
</svg>
