<svg width="24" height="24" viewBox="0 0 24 24" fill="none" xmlns="http://www.w3.org/2000/svg">
<path d="M2.4519 18.2031C2.53893 18.2031 2.62239 18.1685 2.68392 18.107C2.74546 18.0454 2.78003 17.962 2.78003 17.8749V12.5001C2.78003 12.413 2.74546 12.3296 2.68392 12.268C2.62239 12.2065 2.53893 12.1719 2.4519 12.1719C2.36488 12.1719 2.28142 12.2065 2.21988 12.268C2.15835 12.3296 2.12378 12.413 2.12378 12.5001V17.8749C2.12378 17.962 2.15835 18.0454 2.21988 18.107C2.28142 18.1685 2.36488 18.2031 2.4519 18.2031Z" fill="black"/>
<path d="M22.9461 12.1819C22.9512 12.1742 22.9547 12.1659 22.959 12.1579C22.9721 12.138 22.9814 12.1159 22.9864 12.0926C22.9892 12.0831 22.993 12.0739 22.9949 12.0641C23.0033 12.0217 23.0033 11.9781 22.9949 11.9357C22.993 11.9258 22.9892 11.9169 22.9864 11.9072C22.9836 11.8961 22.9802 11.8853 22.9763 11.8746C22.9712 11.8634 22.9654 11.8525 22.959 11.8419C22.9547 11.8341 22.9512 11.8258 22.9461 11.8181C22.9341 11.8 22.9202 11.7831 22.9049 11.7677L20.5594 9.42225C20.4979 9.36071 20.4144 9.32614 20.3274 9.32614C20.2404 9.32614 20.1569 9.36071 20.0954 9.42225C20.0338 9.48379 19.9992 9.56725 19.9992 9.65428C19.9992 9.74131 20.0338 9.82478 20.0954 9.88631L21.8811 11.6719H11.8918C11.8048 11.6719 11.7214 11.7064 11.6598 11.768C11.5983 11.8295 11.5637 11.913 11.5637 12C11.5637 12.087 11.5983 12.1705 11.6598 12.232C11.7214 12.2936 11.8048 12.3281 11.8918 12.3281H21.8811L20.0955 14.1137C20.034 14.1752 19.9994 14.2587 19.9994 14.3457C19.9994 14.4327 20.034 14.5162 20.0955 14.5778C20.1571 14.6393 20.2405 14.6739 20.3276 14.6739C20.4146 14.6739 20.4981 14.6393 20.5596 14.5778L22.9049 12.2323C22.9202 12.2169 22.9341 12.2 22.9461 12.1819Z" fill="black"/>
<path d="M17.8922 13.5469C17.8051 13.5469 17.7217 13.5814 17.6601 13.643C17.5986 13.7045 17.564 13.788 17.564 13.875V20.7938H9.11884V3.20624H17.564V10.125C17.564 10.212 17.5986 10.2955 17.6601 10.357C17.7217 10.4186 17.8051 10.4531 17.8922 10.4531C17.9792 10.4531 18.0626 10.4186 18.1242 10.357C18.1857 10.2955 18.2203 10.212 18.2203 10.125V2.87812C18.2203 2.7911 18.1857 2.70764 18.1242 2.6461C18.0626 2.58456 17.9792 2.54999 17.8922 2.54999H9.11884V1.21874C9.11887 1.16406 9.10523 1.11023 9.07916 1.06215C9.05309 1.01408 9.01542 0.97328 8.96957 0.943471C8.92372 0.913661 8.87114 0.895785 8.81663 0.891467C8.76211 0.887148 8.70738 0.896525 8.6574 0.918744L1.19359 4.23618C1.13559 4.262 1.08632 4.30408 1.05174 4.35732C1.01717 4.41057 0.998769 4.4727 0.998779 4.53618V19.464C0.998769 19.5275 1.01717 19.5896 1.05174 19.6429C1.08632 19.6961 1.13559 19.7382 1.19359 19.764L8.6574 23.0813C8.70738 23.1035 8.76211 23.1128 8.81663 23.1085C8.87114 23.1042 8.92372 23.0863 8.96957 23.0565C9.01542 23.0267 9.05309 22.9859 9.07916 22.9378C9.10523 22.8898 9.11887 22.8359 9.11884 22.7813V21.45H17.8922C17.9792 21.45 18.0626 21.4154 18.1242 21.3539C18.1857 21.2924 18.2203 21.2089 18.2203 21.1219V13.875C18.2203 13.788 18.1857 13.7045 18.1242 13.643C18.0626 13.5814 17.9792 13.5469 17.8922 13.5469ZM8.46259 22.2765L1.65503 19.2506V4.74937L8.46259 1.72349V22.2765Z" fill="black"/>
</svg>
