<svg width="18" height="18" viewBox="0 0 18 18" fill="none" xmlns="http://www.w3.org/2000/svg">
<path fill-rule="evenodd" clip-rule="evenodd" d="M8.41425 1.56628C8.75129 1.27739 9.24863 1.27739 9.58568 1.56628L17.4607 8.31628C17.8381 8.63976 17.8818 9.20793 17.5583 9.58532C17.2348 9.96272 16.6666 10.0064 16.2893 9.68294L15.5249 9.02782V16.8747C15.5249 17.3717 15.122 17.7747 14.6249 17.7747H3.37495C2.87789 17.7747 2.47495 17.3717 2.47495 16.8747V9.02785L1.71067 9.68294C1.33328 10.0064 0.76511 9.96272 0.44163 9.58532C0.118151 9.20793 0.161856 8.63976 0.539249 8.31628L8.41425 1.56628ZM8.99996 3.43498L13.7249 7.48496V15.9747H12.1499V11.2496C12.1499 10.7526 11.747 10.3496 11.2499 10.3496H6.74995C6.25289 10.3496 5.84995 10.7526 5.84995 11.2496V15.9747H4.27495V7.48499L8.99996 3.43498ZM7.64995 15.9747H10.3499V12.1496H7.64995V15.9747Z" fill="#878787"/>
</svg>
