<svg width="28" height="28" viewBox="0 0 28 28" fill="none" xmlns="http://www.w3.org/2000/svg">
<path d="M25.5839 23.6168L23.5795 20.2778C22.6555 18.7367 22.1667 16.9727 22.1667 15.1748V12.25C22.1667 7.74784 18.5022 4.08334 14 4.08334C9.49785 4.08334 5.83335 7.74784 5.83335 12.25V15.1748C5.83335 16.9727 5.3445 18.7367 4.4205 20.2778L2.41615 23.6168C2.30765 23.7965 2.3053 24.0217 2.408 24.2037C2.51185 24.3868 2.70665 24.5 2.91665 24.5H25.0833C25.2933 24.5 25.4882 24.3869 25.5919 24.2037C25.6947 24.0216 25.6924 23.7965 25.5839 23.6168ZM3.94685 23.3333L5.42035 20.8775C6.454 19.1555 7 17.1838 7 15.1748V12.25C7 8.38949 10.1395 5.24999 14 5.24999C17.8605 5.24999 21 8.38949 21 12.25V15.1748C21 17.1838 21.546 19.1555 22.5785 20.8775L24.0532 23.3333H3.94685Z" fill="#3A3A3A"/>
<path d="M14 0C12.7131 0 11.6666 1.0465 11.6666 2.33335V4.6667C11.6666 4.98865 11.928 5.25 12.25 5.25C12.572 5.25 12.8333 4.98865 12.8333 4.66665V2.33335C12.8333 1.68935 13.356 1.1667 14 1.1667C14.644 1.1667 15.1666 1.68935 15.1666 2.33335V4.6667C15.1666 4.98865 15.428 5.25 15.75 5.25C16.072 5.25 16.3333 4.98865 16.3333 4.66665V2.33335C16.3333 1.0465 15.2868 0 14 0Z" fill="#3A3A3A"/>
<path d="M16.5247 23.6215C16.3602 23.3439 16.0043 23.2529 15.7255 23.4127C15.4467 23.576 15.3534 23.9342 15.5167 24.2118C15.6683 24.4697 15.7512 24.7788 15.7512 25.0833C15.7512 26.0482 14.966 26.8333 14.0012 26.8333C13.0363 26.8333 12.2512 26.0482 12.2512 25.0833C12.2512 24.7788 12.334 24.4697 12.4857 24.2118C12.6478 23.933 12.5545 23.576 12.2768 23.4127C11.9957 23.2528 11.641 23.3438 11.4777 23.6215C11.2198 24.0625 11.0833 24.5677 11.0833 25.0834C11.0834 26.6922 12.3912 28 14 28C15.6089 28 16.9167 26.6922 16.919 25.0834C16.919 24.5677 16.7825 24.0625 16.5247 23.6215Z" fill="#3A3A3A"/>
</svg>
