<svg width="24" height="21" viewBox="0 0 24 21" fill="none" xmlns="http://www.w3.org/2000/svg">
<path fill-rule="evenodd" clip-rule="evenodd" d="M11.5371 0.81139C11.8114 0.605676 12.1886 0.605676 12.4629 0.81139L22.7486 8.52568C23.0894 8.78131 23.1585 9.26484 22.9029 9.60568C22.6472 9.94652 22.1637 10.0156 21.8229 9.75996L20.4857 8.75711V19.4286C20.4857 19.8546 20.1403 20.2 19.7143 20.2H4.28572C3.85967 20.2 3.51429 19.8546 3.51429 19.4286V8.7571L2.17714 9.75996C1.8363 10.0156 1.35277 9.94652 1.09714 9.60568C0.841508 9.26484 0.910584 8.78131 1.25142 8.52568L11.5371 0.81139ZM12 2.39282L18.9429 7.59997V18.6571H15.3429V12.5714C15.3429 12.1453 14.9975 11.8 14.5714 11.8H9.42857C9.00252 11.8 8.65714 12.1453 8.65714 12.5714V18.6571H5.05714V7.59996L12 2.39282ZM10.2 18.6571H13.8V13.3428H10.2V18.6571Z" fill="white"/>
</svg>
