<svg width="28" height="24" viewBox="0 0 28 24" fill="none" xmlns="http://www.w3.org/2000/svg">
<path d="M25.8947 7.57895V1.89474C25.8947 0.821053 25.0737 0 24 0H1.89474C0.821053 0 0 0.821053 0 1.89474V22.1053C0 23.1789 0.821053 24 1.89474 24H24C25.0737 24 25.8947 23.1789 25.8947 22.1053V16.4211C26.9684 16.4211 27.7895 15.6 27.7895 14.5263V9.47368C27.7895 8.4 26.9684 7.57895 25.8947 7.57895ZM24 22.1053H1.89474V1.89474H24V7.57895H20.8421C19.7684 7.57895 18.9474 8.4 18.9474 9.47368V14.5263C18.9474 15.6 19.7684 16.4211 20.8421 16.4211H24V22.1053ZM25.8947 14.5263H20.8421V9.47368H25.8947V14.5263Z" fill="black"/>
</svg>
