<svg width="18" height="18" viewBox="0 0 18 18" fill="none" xmlns="http://www.w3.org/2000/svg">
<path fill-rule="evenodd" clip-rule="evenodd" d="M9 6.075C9.86985 6.075 10.575 5.36985 10.575 4.5C10.575 3.63015 9.86985 2.925 9 2.925C8.13015 2.925 7.425 3.63015 7.425 4.5C7.425 5.36985 8.13015 6.075 9 6.075ZM9 7.875C10.864 7.875 12.375 6.36396 12.375 4.5C12.375 2.63604 10.864 1.125 9 1.125C7.13604 1.125 5.625 2.63604 5.625 4.5C5.625 6.36396 7.13604 7.875 9 7.875Z" fill="#878787"/>
<path fill-rule="evenodd" clip-rule="evenodd" d="M7.37118 11.0246C4.84727 11.0246 2.76897 13.0082 2.65131 15.5293L2.58658 16.9166C2.56341 17.4131 2.14212 17.7968 1.6456 17.7736C1.14908 17.7505 0.765362 17.3292 0.788533 16.8327L0.85327 15.4454C1.01574 11.9638 3.88578 9.22461 7.37118 9.22461H10.5318C13.8621 9.22461 16.658 11.7326 17.0185 15.0433L17.2073 16.7772C17.2611 17.2713 16.9041 17.7155 16.41 17.7693C15.9158 17.8231 15.4716 17.4662 15.4178 16.972L15.229 15.2381C14.968 12.8407 12.9434 11.0246 10.5318 11.0246H7.37118Z" fill="#878787"/>
<path fill-rule="evenodd" clip-rule="evenodd" d="M7.38 13.965L4.905 10.665L6.345 9.58496L8.82 12.885C8.91 13.005 9.09 13.005 9.18 12.885L11.655 9.58496L13.095 10.665L10.62 13.965C9.81 15.045 8.19 15.045 7.38 13.965Z" fill="#878787"/>
</svg>
