<svg width="29" height="28" viewBox="0 0 29 28" fill="none" xmlns="http://www.w3.org/2000/svg">
<path d="M19.0239 17.9375C19.0239 18.3702 19.1537 18.7931 19.3967 19.1528C19.6398 19.5126 19.9853 19.7929 20.3895 19.9585C20.7937 20.1241 21.2385 20.1674 21.6676 20.083C22.0967 19.9986 22.4908 19.7902 22.8002 19.4843C23.1096 19.1784 23.3202 18.7886 23.4056 18.3643C23.491 17.9399 23.4471 17.5001 23.2797 17.1004C23.1123 16.7007 22.8288 16.359 22.465 16.1187C22.1012 15.8783 21.6735 15.75 21.236 15.75C20.6495 15.7507 20.0873 15.9814 19.6726 16.3915C19.2579 16.8016 19.0246 17.3576 19.0239 17.9375ZM22.5633 17.9375C22.5633 18.1971 22.4854 18.4509 22.3396 18.6667C22.1937 18.8825 21.9865 19.0508 21.7439 19.1501C21.5014 19.2494 21.2345 19.2754 20.9771 19.2248C20.7196 19.1742 20.4831 19.0491 20.2975 18.8656C20.1119 18.682 19.9855 18.4482 19.9343 18.1936C19.8831 17.939 19.9093 17.6751 20.0098 17.4352C20.1102 17.1954 20.2804 16.9904 20.4986 16.8462C20.7169 16.702 20.9735 16.625 21.236 16.625C21.588 16.625 21.9256 16.7633 22.1745 17.0094C22.4234 17.2556 22.5633 17.5894 22.5633 17.9375Z" fill="#3A3A3A"/>
<path d="M22.7756 24.1981C24.1206 22.4831 26.1026 19.6612 26.1026 17.9375C26.1001 16.8139 25.7009 15.7265 24.9739 14.863C24.2469 13.9995 23.2378 13.4142 22.1209 13.2081V3.5H23.0057C23.123 3.5 23.2356 3.45391 23.3185 3.37186C23.4015 3.28981 23.4481 3.17853 23.4481 3.0625V1.3125C23.4481 1.19647 23.4015 1.08519 23.3185 1.00314C23.2356 0.921094 23.123 0.875 23.0057 0.875H2.65457C2.53724 0.875 2.42471 0.921094 2.34174 1.00314C2.25877 1.08519 2.21216 1.19647 2.21216 1.3125V3.0625C2.21216 3.17853 2.25877 3.28981 2.34174 3.37186C2.42471 3.45391 2.53724 3.5 2.65457 3.5H3.53941V21H2.65457C2.53724 21 2.42471 21.0461 2.34174 21.1281C2.25877 21.2102 2.21216 21.3215 2.21216 21.4375V22.75C2.21216 22.866 2.25877 22.9773 2.34174 23.0594C2.42471 23.1414 2.53724 23.1875 2.65457 23.1875H18.9311C19.1965 23.5506 19.4575 23.8919 19.6964 24.1981C18.6302 24.3994 17.6967 24.8369 17.6967 25.5938C17.6967 26.6437 19.5327 27.125 21.236 27.125C22.9393 27.125 24.7754 26.6437 24.7754 25.5938C24.7754 24.8369 23.8419 24.3994 22.7756 24.1981ZM3.09699 2.625V1.75H22.5633V2.625H3.09699ZM19.9088 9.625H17.2543C17.137 9.625 17.0244 9.67109 16.9415 9.75314C16.8585 9.83519 16.8119 9.94647 16.8119 10.0625V13.125H16.3695V14H18.4488C17.8072 14.4422 17.2831 15.0312 16.9211 15.7167C16.559 16.4022 16.3698 17.1641 16.3695 17.9375C16.3695 18.7819 16.8473 19.8888 17.4888 21H15.4846V18.8125C15.4846 18.1163 15.205 17.4486 14.7071 16.9563C14.2093 16.4641 13.5342 16.1875 12.8301 16.1875C12.1261 16.1875 11.4509 16.4641 10.9531 16.9563C10.4553 17.4486 10.1756 18.1163 10.1756 18.8125V21H4.42424V3.5H21.236V13.125C20.9391 13.126 20.643 13.1538 20.3512 13.2081V10.0625C20.3512 9.94647 20.3046 9.83519 20.2216 9.75314C20.1387 9.67109 20.0261 9.625 19.9088 9.625ZM19.4664 10.5V13.125H17.6967V10.5H19.4664ZM14.5998 18.8125V21H11.0605V18.8125C11.0605 18.3484 11.2469 17.9033 11.5788 17.5751C11.9107 17.2469 12.3608 17.0625 12.8301 17.0625C13.2995 17.0625 13.7496 17.2469 14.0815 17.5751C14.4134 17.9033 14.5998 18.3484 14.5998 18.8125ZM3.09699 22.3125V21.875H18.0241C18.1214 22.0238 18.2188 22.1681 18.3161 22.3125H3.09699ZM17.2543 17.9375C17.2543 16.8932 17.6738 15.8917 18.4205 15.1533C19.1672 14.4148 20.18 14 21.236 14C22.2921 14 23.3048 14.4148 24.0516 15.1533C24.7983 15.8917 25.2178 16.8932 25.2178 17.9375C25.2178 19.6306 22.5943 23.0869 21.236 24.7013C19.8778 23.0869 17.2543 19.6306 17.2543 17.9375ZM21.236 26.25C19.5372 26.25 18.6346 25.7688 18.5815 25.6025C18.6214 25.4669 19.1877 25.1213 20.3335 24.9944C20.6476 25.375 20.8644 25.62 20.9042 25.6637C20.9457 25.7103 20.9968 25.7476 21.054 25.7731C21.1112 25.7987 21.1733 25.8119 21.236 25.8119C21.2988 25.8119 21.3609 25.7987 21.4181 25.7731C21.4753 25.7476 21.5263 25.7103 21.5678 25.6637C21.6077 25.62 21.8244 25.375 22.1386 24.9944C23.2844 25.1213 23.8507 25.4669 23.8905 25.585C23.8374 25.7687 22.9349 26.25 21.236 26.25Z" fill="#3A3A3A"/>
<path d="M20.3511 7.875V4.8125C20.3511 4.69647 20.3045 4.58519 20.2215 4.50314C20.1386 4.42109 20.026 4.375 19.9087 4.375H17.2542C17.1369 4.375 17.0243 4.42109 16.9414 4.50314C16.8584 4.58519 16.8118 4.69647 16.8118 4.8125V7.875H16.3694V8.75H20.7935V7.875H20.3511ZM19.4663 7.875H17.6966V5.25H19.4663V7.875Z" fill="#3A3A3A"/>
<path d="M14.5997 7.875V4.8125C14.5997 4.69647 14.5531 4.58519 14.4701 4.50314C14.3871 4.42109 14.2746 4.375 14.1572 4.375H11.5028C11.3854 4.375 11.2729 4.42109 11.1899 4.50314C11.1069 4.58519 11.0603 4.69647 11.0603 4.8125V7.875H10.6179V8.75H15.0421V7.875H14.5997ZM13.7148 7.875H11.9452V5.25H13.7148V7.875Z" fill="#3A3A3A"/>
<path d="M8.8482 7.875V4.8125C8.8482 4.69647 8.80159 4.58519 8.71862 4.50314C8.63565 4.42109 8.52312 4.375 8.40578 4.375H5.75129C5.63395 4.375 5.52142 4.42109 5.43845 4.50314C5.35548 4.58519 5.30887 4.69647 5.30887 4.8125V7.875H4.86646V8.75H9.29061V7.875H8.8482ZM7.96337 7.875H6.1937V5.25H7.96337V7.875Z" fill="#3A3A3A"/>
<path d="M8.8482 13.125V10.0625C8.8482 9.94647 8.80159 9.83519 8.71862 9.75314C8.63565 9.67109 8.52312 9.625 8.40578 9.625H5.75129C5.63395 9.625 5.52142 9.67109 5.43845 9.75314C5.35548 9.83519 5.30887 9.94647 5.30887 10.0625V13.125H4.86646V14H9.29061V13.125H8.8482ZM7.96337 13.125H6.1937V10.5H7.96337V13.125Z" fill="#3A3A3A"/>
<path d="M14.5997 13.125V10.0625C14.5997 9.94647 14.5531 9.83519 14.4701 9.75314C14.3871 9.67109 14.2746 9.625 14.1572 9.625H11.5028C11.3854 9.625 11.2729 9.67109 11.1899 9.75314C11.1069 9.83519 11.0603 9.94647 11.0603 10.0625V13.125H10.6179V14H15.0421V13.125H14.5997ZM13.7148 13.125H11.9452V10.5H13.7148V13.125Z" fill="#3A3A3A"/>
</svg>
