<svg width="151" height="44" viewBox="0 0 151 44" fill="none" xmlns="http://www.w3.org/2000/svg">
<g clip-path="url(#clip0)">
<path d="M21.4715 6.26074L19.582 18.8014L25.6964 22.6882L33.6057 19.1723L21.4715 6.26074Z" fill="#5484F7"/>
<path d="M4.125 9.75755L19.582 18.8014L21.4715 6.26074L4.125 9.75755Z" fill="#3E74F4"/>
<path d="M26.8465 11.9799L29.0125 8.25537L33.6057 19.1723L26.8465 11.9799Z" fill="#1448C3"/>
<path d="M37.8213 8.14551L29.0125 8.25523L33.6058 19.1722L37.8213 8.14551Z" fill="#3E74F4"/>
<path d="M39.875 11.1637L37.8213 8.14551L37.0159 10.252L39.875 11.1637Z" fill="#1448C3"/>
<path d="M21.7275 2.75L29.0125 8.2553L26.8466 11.9798L21.4716 6.26072L21.7275 2.75Z" fill="#3E74F4"/>
<path d="M4.57106 7.23172L21.7275 2.75L21.4716 6.26072L7.49063 9.07899L4.57106 7.23172Z" fill="#1448C4"/>
<path d="M12.2331 29.0508L20.3259 19.2739L25.6965 22.6882L12.2331 29.0508Z" fill="#1448C3"/>
<path d="M19.6113 41.9374L25.6965 22.6882L12.2331 29.0509L19.6113 41.9374Z" fill="#5484F7"/>
</g>
<path d="M62.354 22.456H59.726V28H57.962V15.4H59.726V20.872H62.39L66.35 15.4H68.276L63.776 21.502L68.492 28H66.44L62.354 22.456ZM78.4751 18.46L73.8491 28.954C73.4411 29.926 72.9611 30.61 72.4091 31.006C71.8691 31.402 71.2151 31.6 70.4471 31.6C69.9791 31.6 69.5231 31.522 69.0791 31.366C68.6471 31.222 68.2871 31.006 67.9991 30.718L68.7371 29.422C69.2291 29.89 69.7991 30.124 70.4471 30.124C70.8671 30.124 71.2151 30.01 71.4911 29.782C71.7791 29.566 72.0371 29.188 72.2651 28.648L72.5711 27.982L68.3591 18.46H70.1591L73.4891 26.092L76.7831 18.46H78.4751ZM83.9523 23.968H81.9723V28H80.2443V18.46H81.9723V22.492H83.9883L87.0843 18.46H88.9383L85.3203 23.05L89.1903 28H87.1563L83.9523 23.968ZM98.9712 18.46L94.3452 28.954C93.9372 29.926 93.4572 30.61 92.9052 31.006C92.3652 31.402 91.7112 31.6 90.9432 31.6C90.4752 31.6 90.0192 31.522 89.5752 31.366C89.1432 31.222 88.7832 31.006 88.4952 30.718L89.2332 29.422C89.7252 29.89 90.2952 30.124 90.9432 30.124C91.3632 30.124 91.7112 30.01 91.9872 29.782C92.2752 29.566 92.5332 29.188 92.7612 28.648L93.0672 27.982L88.8552 18.46H90.6552L93.9852 26.092L97.2792 18.46H98.9712ZM114.33 18.46V28H100.74V18.46H102.468V26.488H106.68V18.46H108.408V26.488H112.602V18.46H114.33ZM121.394 23.968H119.414V28H117.686V18.46H119.414V22.492H121.43L124.526 18.46H126.38L122.762 23.05L126.632 28H124.598L121.394 23.968ZM131.67 18.37C132.99 18.37 133.998 18.694 134.694 19.342C135.402 19.99 135.756 20.956 135.756 22.24V28H134.118V26.74C133.83 27.184 133.416 27.526 132.876 27.766C132.348 27.994 131.718 28.108 130.986 28.108C129.918 28.108 129.06 27.85 128.412 27.334C127.776 26.818 127.458 26.14 127.458 25.3C127.458 24.46 127.764 23.788 128.376 23.284C128.988 22.768 129.96 22.51 131.292 22.51H134.028V22.168C134.028 21.424 133.812 20.854 133.38 20.458C132.948 20.062 132.312 19.864 131.472 19.864C130.908 19.864 130.356 19.96 129.816 20.152C129.276 20.332 128.82 20.578 128.448 20.89L127.728 19.594C128.22 19.198 128.808 18.898 129.492 18.694C130.176 18.478 130.902 18.37 131.67 18.37ZM131.274 26.776C131.934 26.776 132.504 26.632 132.984 26.344C133.464 26.044 133.812 25.624 134.028 25.084V23.752H131.364C129.9 23.752 129.168 24.244 129.168 25.228C129.168 25.708 129.354 26.086 129.726 26.362C130.098 26.638 130.614 26.776 131.274 26.776Z" fill="white"/>
<defs>
<clipPath id="clip0">
<rect width="35.75" height="39.1875" fill="white" transform="translate(4.125 2.75)"/>
</clipPath>
</defs>
</svg>
