<svg width="16" height="16" viewBox="0 0 16 16" fill="none" xmlns="http://www.w3.org/2000/svg">
<g clip-path="url(#clip0)">
<path d="M15.5739 2.59668L13.392 0.413029C12.8423 -0.137161 11.886 -0.138218 11.3342 0.414086L1.5601 10.2846C1.51678 10.3283 1.48551 10.382 1.46847 10.441L0.0139569 15.5362C-0.0222815 15.6631 0.013241 15.7999 0.106649 15.8934C0.175888 15.9627 0.26858 16.0001 0.363761 16.0001C0.397136 16.0001 0.430886 15.9954 0.463544 15.9862L5.5544 14.5304C5.61335 14.5134 5.66697 14.4821 5.71064 14.4387L15.5739 4.65524C15.8487 4.38017 16 4.01478 16 3.62598C16 3.23717 15.8487 2.87175 15.5739 2.59668ZM9.74957 3.05925L11.0881 4.39779L4.09965 11.3863L3.59811 10.3829C3.53631 10.2596 3.41061 10.1819 3.27282 10.1819H2.69048L9.74957 3.05925ZM0.893223 15.1069L1.36688 13.4488L2.55126 14.6332L0.893223 15.1069ZM5.09098 13.9077L3.35116 14.4047L1.59539 12.6489L2.0924 10.9091H3.04799L3.67475 12.1627C3.70989 12.233 3.76707 12.2902 3.83739 12.3253L5.09094 12.9521V13.9077H5.09098ZM5.81827 13.3096V12.7273C5.81827 12.5895 5.74051 12.4638 5.61727 12.402L4.61384 11.9005L11.6023 4.91201L12.9408 6.25055L5.81827 13.3096ZM15.0607 4.14958L13.4573 5.73865L10.2614 2.54274L11.8494 0.940446C12.1243 0.665573 12.603 0.665573 12.8779 0.940446L15.0597 3.12225C15.1971 3.25967 15.2727 3.44219 15.2727 3.63644C15.2727 3.83069 15.1971 4.01321 15.0607 4.14958Z" fill="#C4C5C7"/>
</g>
<defs>
<clipPath id="clip0">
<rect width="16" height="16" fill="white"/>
</clipPath>
</defs>
</svg>
